<svg width="40" height="40" viewBox="0 0 40 40" fill="none" xmlns="http://www.w3.org/2000/svg">
  <defs>
    <linearGradient id="max-gradient" x1="6" y1="4" x2="34" y2="36" gradientUnits="userSpaceOnUse">
      <stop stop-color="#79A8FF"/>
      <stop offset="1" stop-color="#5A16FF"/>
    </linearGradient>
  </defs>
  <rect x="2" y="2" width="36" height="36" rx="12" fill="url(#max-gradient)"/>
  <path d="M20.2 10.5C14.45 10.5 10.5 14.66 10.5 19.91C10.5 25.16 14.45 29.33 19.82 29.33H22.24L26.74 32.73C27.39 33.22 28.31 32.75 28.31 31.94V27.93C30.98 26.12 32.5 23.17 32.5 19.91C32.5 14.66 27.9 10.5 20.2 10.5Z" fill="white"/>
  <path d="M19.37 15.7C17.5 15.7 16.07 16.74 15.27 18.47H13.83C14.7 15.99 16.75 14.5 19.37 14.5C22.84 14.5 25.5 17.02 25.5 20.33C25.5 23.65 22.84 26.17 19.37 26.17C16.75 26.17 14.7 24.67 13.83 22.2H15.27C16.07 23.92 17.5 24.97 19.37 24.97C22.13 24.97 24.22 22.96 24.22 20.33C24.22 17.71 22.13 15.7 19.37 15.7Z" fill="#5A16FF"/>
</svg>
