<svg width="40" height="40" viewBox="0 0 40 40" fill="none" xmlns="http://www.w3.org/2000/svg">
  <circle cx="20" cy="20" r="18" fill="#2787F5"/>
  <path d="M12.05 13.86C12.24 13.52 12.58 13.31 12.96 13.31H15.71C16.13 13.31 16.5 13.58 16.63 13.97C17.63 16.99 19.09 19.57 19.67 19.57C20.13 19.57 20.33 18.95 20.33 17.61V14.42C20.33 13.81 20.83 13.31 21.45 13.31H24.16C24.77 13.31 25.27 13.81 25.27 14.42V18.04C25.27 19.21 25.45 19.45 25.74 19.45C26.32 19.45 27.72 16.84 28.67 13.97C28.8 13.58 29.17 13.31 29.59 13.31H32.34C33.12 13.31 33.65 14.11 33.34 14.82C31.98 17.95 30.1 20.43 30.1 20.43C29.81 20.87 29.84 21.46 30.18 21.86C31.11 22.95 32.17 24.39 32.82 25.53C33.24 26.27 32.71 27.19 31.86 27.19H28.8C28.47 27.19 28.16 27.04 27.95 26.78C26.4 24.88 25.85 24.69 25.56 24.69C25.15 24.69 25.02 24.95 25.02 25.72V26.08C25.02 26.69 24.52 27.19 23.91 27.19H22.27C16.84 27.19 13.74 19.41 11.95 14.82C11.83 14.51 11.87 14.16 12.05 13.86Z" fill="white"/>
</svg>
